# xmcd
#
# Track frame offsets:
#   150
#   17800
#   30326
#   51290
#   73521
#   86704
#   101949
#   117956
#   135377
#   147456
#   155520
#   170172
#   184193
#
# Disc length: 2598 seconds
#
# Revision: 0
# Processed by: cddbd v1.5.2PL0 Copyright (c) Steve Scherf et al.
# Submitted via: GXTranscoder 2.0.1939
#
DISCID=b80a240d
DTITLE=Jack London - Der Ruf der Wildnis
DYEAR=1900
DGENRE=Blues
TTITLE0=In die Wildnis
TTITLE1=So war die Lage
TTITLE2=Als er wieder zu sich kam
TTITLE3=Die Bediensteten waren froh
TTITLE4=Die Tage vergingen
TTITLE5=Pero
TTITLE6=Das Recht des Stärkeren
TTITLE7=Noch ehe Buck sich erholt hatte
TTITLE8=In seiner ersten Nacht
TTITLE9=Es war heller Morgen
TTITLE10=Buck war froh
TTITLE11=Tag für Tag
TTITLE12=Seine Entwicklung
EXTD=
EXTT0=
EXTT1=
EXTT2=
EXTT3=
EXTT4=
EXTT5=
EXTT6=
EXTT7=
EXTT8=
EXTT9=
EXTT10=
EXTT11=
EXTT12=
PLAYORDER=
